<svg xmlns="http://www.w3.org/2000/svg" xmlns:xlink="http://www.w3.org/1999/xlink" viewBox="0 0 714.83 682.07"><defs><style>.cls-1{fill:url(#linear-gradient);}.cls-2{isolation:isolate;}.cls-3{clip-path:url(#clip-path);}.cls-4{fill:url(#linear-gradient-3);}.cls-5{fill:url(#linear-gradient-4);}.cls-6{fill:#636363;}.cls-6,.cls-7{mix-blend-mode:overlay;}.cls-8{fill:#fff;}.cls-9{fill:#4a4a4a;}.cls-10,.cls-12,.cls-14{mix-blend-mode:color-burn;}.cls-10{fill:url(#radial-gradient);}.cls-11{fill:url(#linear-gradient-5);}.cls-12{fill:url(#radial-gradient-2);}.cls-13{fill:url(#linear-gradient-6);}.cls-14{fill:url(#radial-gradient-3);}.cls-15{fill:url(#linear-gradient-7);}.cls-16{mix-blend-mode:color-dodge;}.cls-17{fill:url(#linear-gradient-8);}.cls-18{fill:url(#linear-gradient-9);}.cls-19{fill:url(#linear-gradient-10);}.cls-20{fill:url(#linear-gradient-11);}</style><linearGradient id="linear-gradient" x1="51.56" y1="282.61" x2="492.63" y2="-22.4" gradientUnits="userSpaceOnUse"><stop offset="0" stop-color="#fab662"/><stop offset="1" stop-color="#f8ebdc"/></linearGradient><clipPath id="clip-path" transform="translate(91.14 191.03)"><rect class="cls-1" width="504" height="288"/></clipPath><linearGradient id="linear-gradient-3" x1="-38.46" y1="226.95" x2="222.79" y2="226.95" gradientUnits="userSpaceOnUse"><stop offset="0" stop-color="#ff8a00"/><stop offset="1" stop-color="#ffbc00"/></linearGradient><linearGradient id="linear-gradient-4" x1="275" y1="45.47" x2="543.62" y2="45.47" xlink:href="#linear-gradient-3"/><radialGradient id="radial-gradient" cx="530.37" cy="419.79" r="36.28" gradientUnits="userSpaceOnUse"><stop offset="0.2" stop-color="#4d4d4d"/><stop offset="0.58" stop-color="#a9a9a9"/><stop offset="0.87" stop-color="#e7e7e7"/><stop offset="1" stop-color="#fff"/></radialGradient><linearGradient id="linear-gradient-5" x1="530.51" y1="429.84" x2="530.51" y2="385.61" xlink:href="#linear-gradient-3"/><radialGradient id="radial-gradient-2" cx="327.2" cy="385.96" r="11.06" xlink:href="#radial-gradient"/><linearGradient id="linear-gradient-6" x1="236.1" y1="197.99" x2="236.1" y2="184.51" gradientTransform="translate(368.46 -82.1) rotate(76.72)" xlink:href="#linear-gradient-3"/><radialGradient id="radial-gradient-3" cx="67.46" cy="70.2" r="22.96" gradientTransform="translate(69.4 -27.14) rotate(45)" xlink:href="#radial-gradient"/><linearGradient id="linear-gradient-7" x1="158.7" y1="267.59" x2="158.7" y2="239.59" xlink:href="#linear-gradient-3"/><linearGradient id="linear-gradient-8" x1="27.43" y1="189.25" x2="142.65" y2="189.25" gradientTransform="translate(161.64 -3.57) rotate(45.86)" gradientUnits="userSpaceOnUse"><stop offset="0"/><stop offset="0.11" stop-color="#060606"/><stop offset="0.25" stop-color="#161616"/><stop offset="0.41" stop-color="#323232"/><stop offset="0.59" stop-color="#575757"/><stop offset="0.78" stop-color="#888"/><stop offset="0.97" stop-color="#c3c3c3"/><stop offset="1" stop-color="#ccc"/></linearGradient><linearGradient id="linear-gradient-9" x1="152.15" y1="217.03" x2="219.76" y2="217.03" gradientTransform="translate(207.93 -67.92) rotate(45)" xlink:href="#linear-gradient-8"/><linearGradient id="linear-gradient-10" x1="381.19" y1="77.57" x2="471.47" y2="77.57" gradientTransform="translate(179.72 -278.74) rotate(45)" gradientUnits="userSpaceOnUse"><stop offset="0" stop-color="#ccc"/><stop offset="0.03" stop-color="#c3c3c3"/><stop offset="0.22" stop-color="#888"/><stop offset="0.41" stop-color="#575757"/><stop offset="0.59" stop-color="#323232"/><stop offset="0.75" stop-color="#161616"/><stop offset="0.89" stop-color="#060606"/><stop offset="1"/></linearGradient><linearGradient id="linear-gradient-11" x1="419.74" y1="137.09" x2="436.32" y2="137.09" gradientTransform="translate(222.31 -262.51) rotate(45)" xlink:href="#linear-gradient-10"/></defs><g class="cls-2"><g id="Layer_1" data-name="Layer 1"><rect class="cls-1" x="91.14" y="191.03" width="504" height="288"/><g class="cls-3"><path class="cls-4" d="M117.16,91.53c-10.84-11.2-27.09-13.16-42.83-.91-13.57,10.56-21.11,22.85-42.83,23-83,.64-77.39,55.25-57.52,87.43,28.52,46.2,18.26,62,17.42,93.3-.58,21.87.95,39.67,16.75,57.55,23.67,26.78,58.57,24.2,81.71,4.9,11.35-9.48,22.34-21.61,29.51-28.52,19.26-18.53,28.92-22.08,59.36-37.52,58.77-31.06,56.3-86.32,7.14-106.31-42.1-17.12-45.15-17.85-52.56-51.83C130.19,118.36,129.57,104.34,117.16,91.53Z" transform="translate(91.14 191.03)"/><path class="cls-5" d="M428.55,158.17c27.84,56.69,93.43,21.91,88.35-44.26-2.12-27.48-9.62-47.71,8.64-71.4,4.52-5.88,8.45-12.21,12.66-18.33,7.78-11.32,7.85-32-4.19-46.94-17.42-21.67-39.35-39.54-62.1-55.54-29.75-20.94-64.74-27.07-84.55,4.76C375.81-55,374-36.16,352.51-30.22c-12.56,3.46-21.19,6.11-29.92,17.27C307,7,308.13-.36,294.67,7.24c-32.34,18.27-22,62.79,10.71,81.5,21.81,12.46,44.94,7.44,58,7C410.64,94.22,406,112.17,428.55,158.17Z" transform="translate(91.14 191.03)"/><path class="cls-6" d="M155.42-121.21c-5.22,27.58,11.43,54.21,34.44,68,26,15.63,48.46,22,53.89,52.51,1.75,9.88,4.64,23.82,9.18,32.84,16.68,33.17,55.42,23.31,84.51,22.61,27.3-.65,45.09,14.85,72.6,37.17.17.14,57.69,73.34,84.11.75,4.89-13.46,6.07-24.49,8.16-31.87,8.25-29,34.73-28,74.84-45.11C627.9-5.9,644.29-65,589.85-84.84c-20.93-7.61-39-8.69-59.1-18.53-41-20.11-36.82-61.41-72.41-79.21-12.75-7.93-31.91-9.74-44.94-7.65-50.19,8-69.7,27.87-106,17-12.33-3.69-27.69-10.75-46.06-13.6C214-194.19,163.63-164.58,155.42-121.21Z" transform="translate(91.14 191.03)"/><path class="cls-6" d="M-66.82,245c-5.22,27.57,11.43,54.21,34.44,68,26,15.63,48.47,22,53.89,52.52,1.76,9.88,4.65,23.82,9.18,32.84C47.38,431.58,86.12,421.72,115.2,421c27.3-.65,45.09,14.84,72.6,37.17.17.14,57.69,73.34,84.11.74,4.9-13.45,6.07-24.49,8.17-31.86,8.24-29,34.72-28,74.83-45.11,50.76-21.62,67.14-80.78,12.7-100.57-20.92-7.61-39-8.69-59.09-18.53-41-20.11-36.83-61.4-72.42-79.2-12.74-7.93-31.9-9.74-44.94-7.66-50.18,8-69.7,27.88-106,17-12.33-3.69-27.7-10.75-46.06-13.6C-8.2,172.05-58.6,201.66-66.82,245Z" transform="translate(91.14 191.03)"/><g class="cls-7"><path class="cls-8" d="M541,229.17h-.46a65.42,65.42,0,0,1-59.06-41,133.71,133.71,0,0,1-4.05-13.38c-2.37-8.93-4.81-18.16-10.79-25.21-4.4-5.2-10.4-8.8-16.2-12.28-5.13-3.09-10.45-6.28-14.7-10.59-8.63-8.74-12.1-21.08-15.47-33-3.49-12.39-7.1-25.2-16.51-33.76C389.37,46.77,367,48.51,349.05,51.5l-2.09.35c-18.82,3.16-38.28,6.42-54.46-2.74a40.45,40.45,0,0,1-20-34.71,40.43,40.43,0,0,1,20.72-34.27l.24.44A40,40,0,0,0,273,14.41a40,40,0,0,0,19.74,34.27c16,9.07,35.4,5.82,54.13,2.68L349,51c18-3,40.57-4.76,55.16,8.51,9.52,8.65,13.15,21.54,16.66,34,3.34,11.87,6.8,24.15,15.34,32.8,4.21,4.26,9.49,7.44,14.6,10.51,5.83,3.5,11.87,7.12,16.32,12.38,6.05,7.15,8.51,16.43,10.89,25.41A136.42,136.42,0,0,0,482,188c9.07,23.76,33.17,40.51,58.61,40.72,12.38.11,23-4,29.13-11.2l.38.32C563.92,225,553.35,229.17,541,229.17Z" transform="translate(91.14 191.03)"/></g><g class="cls-7"><path class="cls-8" d="M201.75,305.84c-11-4.06-13.41-18-13.94-23.88-.23-2.44-.34-5-.45-7.4-.32-7.13-.66-14.5-3.8-20.91-5.95-12.15-20.29-17.17-28.3-19.09-4.81-1.14-9.79-1.9-14.61-2.63-6.71-1-13.65-2.08-20.22-4.2A65,65,0,0,1,79.81,188c-1.16-3.32-2.07-6.83-3-10.22-2-7.79-4.12-15.84-9.28-22-9.46-11.36-25.65-13.12-41.42-14-8.21-.43-16.69-.88-24.82,1.08-9,2.16-16.17,7.24-19.57,13.93l-.44-.23c3.47-6.82,10.72-12,19.89-14.19,8.21-2,16.72-1.52,25-1.09,15.88.84,32.19,2.62,41.79,14.14,5.22,6.28,7.33,14.38,9.37,22.22.88,3.39,1.79,6.89,2.94,10.19a64.51,64.51,0,0,0,40.3,39.45c6.53,2.12,13.45,3.17,20.15,4.18,4.83.74,9.82,1.49,14.64,2.65,14,3.34,24.16,10.21,28.64,19.35,3.19,6.5,3.53,13.93,3.85,21.11.11,2.43.22,4.94.45,7.38.52,5.73,2.9,19.49,13.61,23.45Z" transform="translate(91.14 191.03)"/></g><g class="cls-7"><path class="cls-9" d="M7.75,367.8a98.22,98.22,0,0,1-69.94-28.95,99,99,0,0,1,0-139.89A98.22,98.22,0,0,1,7.75,170a98.26,98.26,0,0,1,70,29,99,99,0,0,1,0,139.89A98.26,98.26,0,0,1,7.75,367.8Zm0-197.29a98.4,98.4,0,0,0,0,196.79,98.4,98.4,0,1,0,0-196.79Z" transform="translate(91.14 191.03)"/><path class="cls-9" d="M7.75,355.47a86.57,86.57,0,0,1,0-173.13,86.57,86.57,0,1,1,0,173.13Zm0-172.63A86.07,86.07,0,0,0,7.75,355a86.07,86.07,0,1,0,0-172.13Z" transform="translate(91.14 191.03)"/><path class="cls-9" d="M7.75,343.14a74.24,74.24,0,0,1,0-148.47,74.24,74.24,0,1,1,0,148.47Zm0-148a73.74,73.74,0,0,0,0,147.47,73.74,73.74,0,1,0,0-147.47Z" transform="translate(91.14 191.03)"/><path class="cls-9" d="M7.75,330.81A61.91,61.91,0,0,1,7.75,207a61.91,61.91,0,1,1,0,123.81Zm0-123.31a61.41,61.41,0,0,0,0,122.81,61.41,61.41,0,1,0,0-122.81Z" transform="translate(91.14 191.03)"/><path class="cls-9" d="M7.75,318.48a49.58,49.58,0,0,1,0-99.15,49.58,49.58,0,0,1,0,99.15Zm0-98.65a49.08,49.08,0,0,0,0,98.15,49.08,49.08,0,0,0,0-98.15Z" transform="translate(91.14 191.03)"/></g><g class="cls-7"><path class="cls-9" d="M522.14,80.65A98.22,98.22,0,0,1,452.2,51.7a98.25,98.25,0,0,1-28.95-69.94A98.26,98.26,0,0,1,452.2-88.19a98.22,98.22,0,0,1,69.94-28.95,98.26,98.26,0,0,1,70,29,98.26,98.26,0,0,1,28.95,70A98.25,98.25,0,0,1,592.09,51.7,98.26,98.26,0,0,1,522.14,80.65Zm0-197.29a98.51,98.51,0,0,0-98.39,98.4,98.5,98.5,0,0,0,98.39,98.39,98.51,98.51,0,0,0,98.4-98.39A98.51,98.51,0,0,0,522.14-116.64Z" transform="translate(91.14 191.03)"/><path class="cls-9" d="M522.14,68.32a86.66,86.66,0,0,1-86.56-86.56,86.66,86.66,0,0,1,86.56-86.57,86.67,86.67,0,0,1,86.57,86.57A86.67,86.67,0,0,1,522.14,68.32Zm0-172.63a86.16,86.16,0,0,0-86.06,86.07,86.16,86.16,0,0,0,86.06,86.06,86.16,86.16,0,0,0,86.07-86.06A86.17,86.17,0,0,0,522.14-104.31Z" transform="translate(91.14 191.03)"/><path class="cls-9" d="M522.14,56a74.31,74.31,0,0,1-74.23-74.23,74.32,74.32,0,0,1,74.23-74.24,74.33,74.33,0,0,1,74.24,74.24A74.32,74.32,0,0,1,522.14,56Zm0-148a73.82,73.82,0,0,0-73.73,73.74,73.81,73.81,0,0,0,73.73,73.73,73.82,73.82,0,0,0,73.74-73.73A73.82,73.82,0,0,0,522.14-92Z" transform="translate(91.14 191.03)"/><path class="cls-9" d="M522.14,43.66a62,62,0,0,1-61.9-61.9,62,62,0,0,1,61.9-61.91,62,62,0,0,1,61.91,61.91A62,62,0,0,1,522.14,43.66Zm0-123.31a61.47,61.47,0,0,0-61.4,61.41,61.47,61.47,0,0,0,61.4,61.4,61.48,61.48,0,0,0,61.41-61.4A61.48,61.48,0,0,0,522.14-79.65Z" transform="translate(91.14 191.03)"/><path class="cls-9" d="M522.14,31.33a49.63,49.63,0,0,1-49.57-49.57,49.63,49.63,0,0,1,49.57-49.58,49.63,49.63,0,0,1,49.57,49.58A49.62,49.62,0,0,1,522.14,31.33Zm0-98.65a49.13,49.13,0,0,0-49.07,49.08,49.13,49.13,0,0,0,49.07,49.07,49.13,49.13,0,0,0,49.07-49.07A49.13,49.13,0,0,0,522.14-67.32Z" transform="translate(91.14 191.03)"/></g></g><circle class="cls-10" cx="530.37" cy="419.79" r="36.28"/><circle class="cls-11" cx="530.51" cy="409.33" r="26.51"/><circle class="cls-12" cx="327.2" cy="385.96" r="11.06"/><circle class="cls-13" cx="236.1" cy="191.74" r="8.08" transform="translate(86.39 568.5) rotate(-76.72)"/><circle class="cls-14" cx="67.46" cy="70.2" r="22.96" transform="translate(61.27 259.3) rotate(-45)"/><circle class="cls-15" cx="158.7" cy="254.61" r="16.78"/><g class="cls-16"><rect class="cls-17" x="84.54" y="109.47" width="1" height="159.57" transform="translate(-18.86 309.53) rotate(-45.86)"/></g><g class="cls-16"><rect class="cls-18" x="185.45" y="169.73" width="1" height="94.61" transform="translate(-7.86 386.09) rotate(-45)"/></g><g class="cls-16"><rect class="cls-19" x="425.83" y="14.23" width="1" height="126.68" transform="translate(161.17 515.21) rotate(-45)"/></g><g class="cls-16"><rect class="cls-20" x="427.53" y="125.87" width="1" height="22.45" transform="translate(119.57 533.85) rotate(-45)"/></g><g class="cls-7"><circle class="cls-8" cx="113.58" cy="213.37" r="0.88"/><circle class="cls-8" cx="119.58" cy="213.37" r="0.88"/><circle class="cls-8" cx="125.58" cy="213.37" r="0.88"/><circle class="cls-8" cx="131.58" cy="213.37" r="0.88"/><circle class="cls-8" cx="137.58" cy="213.37" r="0.88"/><circle class="cls-8" cx="113.58" cy="219.37" r="0.88"/><circle class="cls-8" cx="119.58" cy="219.37" r="0.88"/><circle class="cls-8" cx="125.58" cy="219.37" r="0.88"/><circle class="cls-8" cx="131.58" cy="219.37" r="0.88"/><circle class="cls-8" cx="137.58" cy="219.37" r="0.88"/><circle class="cls-8" cx="113.58" cy="225.37" r="0.88"/><circle class="cls-8" cx="119.58" cy="225.37" r="0.88"/><circle class="cls-8" cx="125.58" cy="225.37" r="0.88"/><circle class="cls-8" cx="131.58" cy="225.37" r="0.88"/><circle class="cls-8" cx="137.58" cy="225.37" r="0.88"/><circle class="cls-8" cx="113.58" cy="231.37" r="0.88"/><circle class="cls-8" cx="119.58" cy="231.37" r="0.88"/><circle class="cls-8" cx="125.58" cy="231.37" r="0.88"/><circle class="cls-8" cx="131.58" cy="231.37" r="0.88"/><circle class="cls-8" cx="137.58" cy="231.37" r="0.88"/><circle class="cls-8" cx="113.58" cy="237.37" r="0.88"/><circle class="cls-8" cx="119.58" cy="237.37" r="0.88"/><circle class="cls-8" cx="125.58" cy="237.37" r="0.88"/><circle class="cls-8" cx="131.58" cy="237.37" r="0.88"/><circle class="cls-8" cx="137.58" cy="237.37" r="0.88"/><circle class="cls-8" cx="113.58" cy="243.37" r="0.88"/><circle class="cls-8" cx="119.58" cy="243.37" r="0.88"/><circle class="cls-8" cx="125.58" cy="243.37" r="0.88"/><circle class="cls-8" cx="131.58" cy="243.37" r="0.88"/><circle class="cls-8" cx="137.58" cy="243.37" r="0.88"/><circle class="cls-8" cx="113.58" cy="249.37" r="0.88"/><circle class="cls-8" cx="119.58" cy="249.37" r="0.88"/><circle class="cls-8" cx="125.58" cy="249.37" r="0.88"/><circle class="cls-8" cx="131.58" cy="249.37" r="0.88"/><circle class="cls-8" cx="137.58" cy="249.37" r="0.88"/><circle class="cls-8" cx="113.58" cy="255.37" r="0.88"/><circle class="cls-8" cx="119.58" cy="255.37" r="0.88"/><circle class="cls-8" cx="125.58" cy="255.37" r="0.88"/><circle class="cls-8" cx="131.58" cy="255.37" r="0.88"/><circle class="cls-8" cx="137.58" cy="255.37" r="0.88"/><circle class="cls-8" cx="113.58" cy="261.37" r="0.88"/><circle class="cls-8" cx="119.58" cy="261.37" r="0.88"/><circle class="cls-8" cx="125.58" cy="261.37" r="0.88"/><circle class="cls-8" cx="131.58" cy="261.37" r="0.88"/><circle class="cls-8" cx="137.58" cy="261.37" r="0.88"/><circle class="cls-8" cx="113.58" cy="267.37" r="0.88"/><circle class="cls-8" cx="119.58" cy="267.37" r="0.88"/><circle class="cls-8" cx="125.58" cy="267.37" r="0.88"/><circle class="cls-8" cx="131.58" cy="267.37" r="0.88"/><circle class="cls-8" cx="137.58" cy="267.37" r="0.88"/><circle class="cls-8" cx="113.58" cy="273.37" r="0.88"/><circle class="cls-8" cx="119.58" cy="273.37" r="0.88"/><circle class="cls-8" cx="125.58" cy="273.37" r="0.88"/><circle class="cls-8" cx="131.58" cy="273.37" r="0.88"/><circle class="cls-8" cx="137.58" cy="273.37" r="0.88"/><circle class="cls-8" cx="113.58" cy="279.37" r="0.88"/><circle class="cls-8" cx="119.58" cy="279.37" r="0.88"/><circle class="cls-8" cx="125.58" cy="279.37" r="0.88"/><circle class="cls-8" cx="131.58" cy="279.37" r="0.88"/><circle class="cls-8" cx="137.58" cy="279.37" r="0.88"/><circle class="cls-8" cx="113.58" cy="285.37" r="0.88"/><circle class="cls-8" cx="119.58" cy="285.37" r="0.88"/><circle class="cls-8" cx="125.58" cy="285.37" r="0.88"/><circle class="cls-8" cx="131.58" cy="285.37" r="0.88"/><circle class="cls-8" cx="137.58" cy="285.37" r="0.88"/><circle class="cls-8" cx="113.58" cy="291.37" r="0.88"/><circle class="cls-8" cx="119.58" cy="291.37" r="0.88"/><circle class="cls-8" cx="125.58" cy="291.37" r="0.88"/><circle class="cls-8" cx="131.58" cy="291.37" r="0.88"/><circle class="cls-8" cx="137.58" cy="291.37" r="0.88"/><circle class="cls-8" cx="113.58" cy="297.37" r="0.88"/><circle class="cls-8" cx="119.58" cy="297.37" r="0.88"/><circle class="cls-8" cx="125.58" cy="297.37" r="0.88"/><circle class="cls-8" cx="131.58" cy="297.37" r="0.88"/><circle class="cls-8" cx="137.58" cy="297.37" r="0.88"/><circle class="cls-8" cx="113.58" cy="303.37" r="0.88"/><circle class="cls-8" cx="119.58" cy="303.37" r="0.88"/><circle class="cls-8" cx="125.58" cy="303.37" r="0.88"/><circle class="cls-8" cx="131.58" cy="303.37" r="0.88"/><circle class="cls-8" cx="137.58" cy="303.37" r="0.88"/><circle class="cls-8" cx="113.58" cy="309.37" r="0.88"/><circle class="cls-8" cx="119.58" cy="309.37" r="0.88"/><circle class="cls-8" cx="125.58" cy="309.37" r="0.88"/><circle class="cls-8" cx="131.58" cy="309.37" r="0.88"/><circle class="cls-8" cx="137.58" cy="309.37" r="0.88"/><circle class="cls-8" cx="113.58" cy="315.37" r="0.88"/><circle class="cls-8" cx="119.58" cy="315.37" r="0.88"/><circle class="cls-8" cx="125.58" cy="315.37" r="0.88"/><circle class="cls-8" cx="131.58" cy="315.37" r="0.88"/><circle class="cls-8" cx="137.58" cy="315.37" r="0.88"/><circle class="cls-8" cx="113.58" cy="321.37" r="0.88"/><circle class="cls-8" cx="119.58" cy="321.37" r="0.88"/><circle class="cls-8" cx="125.58" cy="321.37" r="0.88"/><circle class="cls-8" cx="131.58" cy="321.37" r="0.88"/><circle class="cls-8" cx="137.58" cy="321.37" r="0.88"/><circle class="cls-8" cx="113.58" cy="327.37" r="0.88"/><circle class="cls-8" cx="119.58" cy="327.37" r="0.88"/><circle class="cls-8" cx="125.58" cy="327.37" r="0.88"/><circle class="cls-8" cx="131.58" cy="327.37" r="0.88"/><circle class="cls-8" cx="137.58" cy="327.37" r="0.88"/><circle class="cls-8" cx="113.58" cy="333.37" r="0.88"/><circle class="cls-8" cx="119.58" cy="333.37" r="0.88"/><circle class="cls-8" cx="125.58" cy="333.37" r="0.88"/><circle class="cls-8" cx="131.58" cy="333.37" r="0.88"/><circle class="cls-8" cx="137.58" cy="333.37" r="0.88"/><circle class="cls-8" cx="113.58" cy="339.37" r="0.88"/><circle class="cls-8" cx="119.58" cy="339.37" r="0.88"/><circle class="cls-8" cx="125.58" cy="339.37" r="0.88"/><circle class="cls-8" cx="131.58" cy="339.37" r="0.88"/><circle class="cls-8" cx="137.58" cy="339.37" r="0.88"/><circle class="cls-8" cx="113.58" cy="345.37" r="0.88"/><circle class="cls-8" cx="119.58" cy="345.37" r="0.88"/><circle class="cls-8" cx="125.58" cy="345.37" r="0.88"/><circle class="cls-8" cx="131.58" cy="345.37" r="0.88"/><circle class="cls-8" cx="137.58" cy="345.37" r="0.88"/><circle class="cls-8" cx="113.58" cy="351.37" r="0.88"/><circle class="cls-8" cx="119.58" cy="351.37" r="0.88"/><circle class="cls-8" cx="125.58" cy="351.37" r="0.88"/><circle class="cls-8" cx="131.58" cy="351.37" r="0.88"/><circle class="cls-8" cx="137.58" cy="351.37" r="0.88"/><circle class="cls-8" cx="113.58" cy="357.37" r="0.88"/><circle class="cls-8" cx="119.58" cy="357.37" r="0.88"/><circle class="cls-8" cx="125.58" cy="357.37" r="0.88"/><circle class="cls-8" cx="131.58" cy="357.37" r="0.88"/><circle class="cls-8" cx="137.58" cy="357.37" r="0.88"/><circle class="cls-8" cx="113.58" cy="363.37" r="0.88"/><circle class="cls-8" cx="119.58" cy="363.37" r="0.88"/><circle class="cls-8" cx="125.58" cy="363.37" r="0.88"/><circle class="cls-8" cx="131.58" cy="363.37" r="0.88"/><circle class="cls-8" cx="137.58" cy="363.37" r="0.88"/><circle class="cls-8" cx="113.58" cy="369.37" r="0.88"/><circle class="cls-8" cx="119.58" cy="369.37" r="0.88"/><circle class="cls-8" cx="125.58" cy="369.37" r="0.88"/><circle class="cls-8" cx="131.58" cy="369.37" r="0.88"/><circle class="cls-8" cx="137.58" cy="369.37" r="0.88"/><circle class="cls-8" cx="113.58" cy="375.37" r="0.88"/><circle class="cls-8" cx="119.58" cy="375.37" r="0.88"/><circle class="cls-8" cx="125.58" cy="375.37" r="0.88"/><circle class="cls-8" cx="131.58" cy="375.37" r="0.88"/><circle class="cls-8" cx="137.58" cy="375.37" r="0.88"/><circle class="cls-8" cx="113.58" cy="381.37" r="0.88"/><circle class="cls-8" cx="119.58" cy="381.37" r="0.88"/><circle class="cls-8" cx="125.58" cy="381.37" r="0.88"/><circle class="cls-8" cx="131.58" cy="381.37" r="0.88"/><circle class="cls-8" cx="137.58" cy="381.37" r="0.88"/><circle class="cls-8" cx="113.58" cy="387.37" r="0.88"/><circle class="cls-8" cx="119.58" cy="387.37" r="0.88"/><circle class="cls-8" cx="125.58" cy="387.37" r="0.88"/><circle class="cls-8" cx="131.58" cy="387.37" r="0.88"/><circle class="cls-8" cx="137.58" cy="387.37" r="0.88"/><circle class="cls-8" cx="113.58" cy="393.37" r="0.88"/><circle class="cls-8" cx="119.58" cy="393.37" r="0.88"/><circle class="cls-8" cx="125.58" cy="393.37" r="0.88"/><circle class="cls-8" cx="131.58" cy="393.37" r="0.88"/><circle class="cls-8" cx="137.58" cy="393.37" r="0.88"/><circle class="cls-8" cx="113.58" cy="399.37" r="0.88"/><circle class="cls-8" cx="119.58" cy="399.37" r="0.88"/><circle class="cls-8" cx="125.58" cy="399.37" r="0.88"/><circle class="cls-8" cx="131.58" cy="399.37" r="0.88"/><circle class="cls-8" cx="137.58" cy="399.37" r="0.88"/><circle class="cls-8" cx="113.58" cy="405.37" r="0.88"/><circle class="cls-8" cx="119.58" cy="405.37" r="0.88"/><circle class="cls-8" cx="125.58" cy="405.37" r="0.88"/><circle class="cls-8" cx="131.58" cy="405.37" r="0.88"/><circle class="cls-8" cx="137.58" cy="405.37" r="0.88"/><circle class="cls-8" cx="113.58" cy="411.37" r="0.88"/><circle class="cls-8" cx="119.58" cy="411.37" r="0.88"/><circle class="cls-8" cx="125.58" cy="411.37" r="0.88"/><circle class="cls-8" cx="131.58" cy="411.37" r="0.88"/><circle class="cls-8" cx="137.58" cy="411.37" r="0.88"/><circle class="cls-8" cx="113.58" cy="417.37" r="0.88"/><circle class="cls-8" cx="119.58" cy="417.37" r="0.88"/><circle class="cls-8" cx="125.58" cy="417.37" r="0.88"/><circle class="cls-8" cx="131.58" cy="417.37" r="0.88"/><circle class="cls-8" cx="137.58" cy="417.37" r="0.88"/></g><g class="cls-7"><circle class="cls-8" cx="539.58" cy="201.13" r="0.88"/><circle class="cls-8" cx="545.58" cy="201.13" r="0.88"/><circle class="cls-8" cx="551.58" cy="201.13" r="0.88"/><circle class="cls-8" cx="557.58" cy="201.13" r="0.88"/><circle class="cls-8" cx="563.58" cy="201.13" r="0.88"/><circle class="cls-8" cx="569.58" cy="201.13" r="0.88"/><circle class="cls-8" cx="539.58" cy="207.13" r="0.88"/><circle class="cls-8" cx="545.58" cy="207.13" r="0.88"/><circle class="cls-8" cx="551.58" cy="207.13" r="0.88"/><circle class="cls-8" cx="557.58" cy="207.13" r="0.88"/><circle class="cls-8" cx="563.58" cy="207.13" r="0.88"/><circle class="cls-8" cx="569.58" cy="207.13" r="0.88"/><circle class="cls-8" cx="539.58" cy="213.13" r="0.88"/><circle class="cls-8" cx="545.58" cy="213.13" r="0.88"/><circle class="cls-8" cx="551.58" cy="213.13" r="0.88"/><circle class="cls-8" cx="557.58" cy="213.13" r="0.88"/><circle class="cls-8" cx="563.58" cy="213.13" r="0.88"/><circle class="cls-8" cx="569.58" cy="213.13" r="0.88"/><circle class="cls-8" cx="539.58" cy="219.13" r="0.88"/><circle class="cls-8" cx="545.58" cy="219.13" r="0.88"/><circle class="cls-8" cx="551.58" cy="219.13" r="0.88"/><circle class="cls-8" cx="557.58" cy="219.13" r="0.88"/><circle class="cls-8" cx="563.58" cy="219.13" r="0.88"/><circle class="cls-8" cx="569.58" cy="219.13" r="0.88"/><circle class="cls-8" cx="539.58" cy="225.13" r="0.88"/><circle class="cls-8" cx="545.58" cy="225.13" r="0.88"/><circle class="cls-8" cx="551.58" cy="225.13" r="0.88"/><circle class="cls-8" cx="557.58" cy="225.13" r="0.88"/><circle class="cls-8" cx="563.58" cy="225.13" r="0.88"/><circle class="cls-8" cx="569.58" cy="225.13" r="0.88"/><circle class="cls-8" cx="539.58" cy="231.13" r="0.88"/><circle class="cls-8" cx="545.58" cy="231.13" r="0.88"/><circle class="cls-8" cx="551.58" cy="231.13" r="0.88"/><circle class="cls-8" cx="557.58" cy="231.13" r="0.88"/><circle class="cls-8" cx="563.58" cy="231.13" r="0.88"/><circle class="cls-8" cx="569.58" cy="231.13" r="0.88"/><circle class="cls-8" cx="539.58" cy="237.13" r="0.88"/><circle class="cls-8" cx="545.58" cy="237.13" r="0.88"/><circle class="cls-8" cx="551.58" cy="237.13" r="0.88"/><circle class="cls-8" cx="557.58" cy="237.13" r="0.88"/><circle class="cls-8" cx="563.58" cy="237.13" r="0.88"/><circle class="cls-8" cx="569.58" cy="237.13" r="0.88"/><circle class="cls-8" cx="539.58" cy="243.13" r="0.88"/><circle class="cls-8" cx="545.58" cy="243.13" r="0.88"/><circle class="cls-8" cx="551.58" cy="243.13" r="0.88"/><circle class="cls-8" cx="557.58" cy="243.13" r="0.88"/><circle class="cls-8" cx="563.58" cy="243.13" r="0.88"/><circle class="cls-8" cx="569.58" cy="243.13" r="0.88"/><circle class="cls-8" cx="539.58" cy="249.13" r="0.88"/><circle class="cls-8" cx="545.58" cy="249.13" r="0.88"/><circle class="cls-8" cx="551.58" cy="249.13" r="0.88"/><circle class="cls-8" cx="557.58" cy="249.13" r="0.88"/><circle class="cls-8" cx="563.58" cy="249.13" r="0.88"/><circle class="cls-8" cx="569.58" cy="249.13" r="0.88"/><circle class="cls-8" cx="539.58" cy="255.13" r="0.88"/><circle class="cls-8" cx="545.58" cy="255.13" r="0.88"/><circle class="cls-8" cx="551.58" cy="255.13" r="0.88"/><circle class="cls-8" cx="557.58" cy="255.13" r="0.88"/><circle class="cls-8" cx="563.58" cy="255.13" r="0.88"/><circle class="cls-8" cx="569.58" cy="255.13" r="0.88"/><circle class="cls-8" cx="539.58" cy="261.13" r="0.88"/><circle class="cls-8" cx="545.58" cy="261.13" r="0.88"/><circle class="cls-8" cx="551.58" cy="261.13" r="0.88"/><circle class="cls-8" cx="557.58" cy="261.13" r="0.88"/><circle class="cls-8" cx="563.58" cy="261.13" r="0.88"/><circle class="cls-8" cx="569.58" cy="261.13" r="0.88"/><circle class="cls-8" cx="539.58" cy="267.13" r="0.88"/><circle class="cls-8" cx="545.58" cy="267.13" r="0.88"/><circle class="cls-8" cx="551.58" cy="267.13" r="0.88"/><circle class="cls-8" cx="557.58" cy="267.13" r="0.88"/><circle class="cls-8" cx="563.58" cy="267.13" r="0.88"/><circle class="cls-8" cx="569.58" cy="267.13" r="0.88"/></g></g></g></svg>